<?xml version="1.0" encoding="UTF-8"?>
<svg xmlns="http://www.w3.org/2000/svg" viewBox="0 0 32 32" width="32" height="32">
  <rect width="32" height="32" rx="6" fill="#0a3a1d"></rect>
  <svg x="4" y="3" width="24" height="26" viewBox="0 0 658 750">
    <g transform="scale(1,-1) translate(0,-750)">
    <path d="M 358.762000 100.671700 L 362.665700 100.737300 L 366.370600 100.842300 L 372.876800 101.110900 L 377.667300 101.357900 L 380.156300 101.516000 L 382.661300 101.728100 L 385.178900 101.992300 L 387.705600 102.306700 L 390.237900 102.669500 L 392.772500 103.078700 L 395.305900 103.532400 L 397.834600 104.028900 L 400.355200 104.566100 L 402.864200 105.142300 L 405.358200 105.755500 L 407.833800 106.403900 L 412.716000 107.798600 L 417.483000 109.311300 L 421.715200 110.747500 L 425.800600 112.185900 L 429.747100 113.629000 L 433.562800 115.079600 L 437.255400 116.540500 L 440.833100 118.014300 L 444.303700 119.503700 L 447.675200 121.011400 L 450.955500 122.540200 L 454.152600 124.092800 L 457.274500 125.671800 L 460.329000 127.280000 L 463.324100 128.920000 L 466.267800 130.594700 L 469.168000 132.306600 L 472.032700 134.058500 L 474.869800 135.853100 L 477.687200 137.693200 L 480.493000 139.581300 L 483.295000 141.520300 L 486.101200 143.512800 L 488.919500 145.561600 L 494.624500 149.838700 L 500.473400 154.373200 L 506.529900 159.186800 L 512.857500 164.301200 L 519.519800 169.738100 L 523.015900 172.660100 L 526.458600 175.652800 L 529.853800 178.707300 L 533.207000 181.814500 L 536.524000 184.965600 L 539.810400 188.151600 L 546.314200 194.592600 L 551.021400 199.380500 L 555.653300 204.256100 L 560.205600 209.218100 L 564.674400 214.264700 L 569.055400 219.394700 L 573.344700 224.606500 L 577.538000 229.898600 L 581.631300 235.269600 L 585.620500 240.717900 L 589.501400 246.242100 L 593.270000 251.840700 L 596.922100 257.512200 L 600.453700 263.255100 L 603.860600 269.068000 L 607.138700 274.949400 L 608.728200 277.915300 L 610.284000 280.897700 L 611.805500 283.896500 L 613.292200 286.911600 L 614.743700 289.942600 L 616.159400 292.989400 L 617.538800 296.051900 L 618.881400 299.129800 L 620.186600 302.223000 L 621.454100 305.331300 L 622.683100 308.454500 L 623.873300 311.592400 L 625.024100 314.744800 L 626.135000 317.911500 L 627.205600 321.092400 L 628.235100 324.287200 L 629.223300 327.495900 L 630.169500 330.718100 L 631.073300 333.953800 L 631.934000 337.202600 L 632.751300 340.464500 L 633.524600 343.739300 L 634.253400 347.026800 L 634.937100 350.326700 L 635.575400 353.638900 L 636.167500 356.963200 L 636.713100 360.299500 L 637.211600 363.647500 L 637.662500 367.007100 L 638.065300 370.378000 L 638.419500 373.760200 L 638.724600 377.153300 L 638.980000 380.557200 L 639.185200 383.971800 L 639.635400 391.533400 L 640.068800 399.107300 L 640.222200 402.898100 L 640.303000 406.691100 L 640.288200 410.485900 L 640.155100 414.282200 L 639.739600 421.261100 L 639.227100 428.217800 L 638.614500 435.155400 L 637.898900 442.076900 L 637.077400 448.985600 L 636.147000 455.884500 L 635.104700 462.776700 L 633.947500 469.665300 L 633.402200 472.603000 L 632.809500 475.531000 L 631.508800 481.363000 L 630.099900 487.172500 L 628.636700 492.970600 L 627.173600 498.768400 L 625.764800 504.576900 L 624.464500 510.407300 L 623.871900 513.334100 L 623.326800 516.270600 L 622.707300 519.645800 L 622.049800 523.014400 L 620.671600 529.740400 L 619.293500 536.466500 L 618.636000 539.835100 L 618.016400 543.210400 L 616.795600 550.362700 L 615.630300 557.736500 L 614.544000 565.298900 L 613.560300 573.016800 L 613.114400 576.923600 L 612.702900 580.857000 L 612.329000 584.812700 L 611.995400 588.786500 L 611.705200 592.774400 L 611.461400 596.772200 L 611.266800 600.775800 L 611.124400 604.781000 L 611.037200 608.783700 L 611.008100 612.779800 L 611.040100 616.765200 L 611.136100 620.735600 L 611.299100 624.687000 L 611.532000 628.615200 L 611.837800 632.516100 L 612.219400 636.385600 L 612.679700 640.219400 L 613.221900 644.013600 L 613.848600 647.763900 L 614.563000 651.466200 L 615.368000 655.116400 L 616.266500 658.710300 L 617.261500 662.243900 L 618.355900 665.712800 L 619.580100 669.231700 L 620.882900 672.682600 L 622.263500 676.069500 L 623.721100 679.395800 L 625.255000 682.665400 L 626.864400 685.881800 L 628.548600 689.048700 L 630.306800 692.169800 L 632.138300 695.248900 L 634.042200 698.289400 L 636.017800 701.295200 L 638.064300 704.269900 L 640.181000 707.217200 L 642.367200 710.140700 L 644.622000 713.044100 L 646.944700 715.931100 L 648.283700 717.476100 L 649.705700 718.974000 L 652.699100 721.914500 L 654.220400 723.400200 L 655.725000 724.924700 L 657.187800 726.509600 L 658.583800 728.176500 L 658.583800 728.419000 L 656.537800 729.009000 L 653.771600 729.911200 L 646.980300 732.277900 L 640.013600 734.770100 L 634.675000 736.639100 L 631.534900 737.658100 L 628.365200 738.632200 L 625.167800 739.561800 L 621.944200 740.447400 L 618.696100 741.289400 L 615.425100 742.088400 L 612.132900 742.844700 L 608.821100 743.559000 L 605.491500 744.231500 L 602.145600 744.862900 L 598.785000 745.453500 L 595.411500 746.003800 L 592.026700 746.514400 L 588.632300 746.985600 L 585.229800 747.417900 L 581.821000 747.811800 L 578.407500 748.167800 L 574.991000 748.486300 L 568.155400 749.012800 L 561.327400 749.395000 L 554.520200 749.636700 L 547.747100 749.741500 L 541.021300 749.713300 L 534.355900 749.555700 L 527.764300 749.272500 L 524.081900 749.033700 L 520.409300 748.707800 L 516.747000 748.298700 L 513.095400 747.810300 L 509.455000 747.246300 L 505.826400 746.610600 L 502.210000 745.906900 L 498.606400 745.139200 L 495.016000 744.311100 L 491.439400 743.426700 L 487.877000 742.489600 L 484.329300 741.503700 L 480.796800 740.472800 L 477.280100 739.400700 L 473.779600 738.291300 L 470.295800 737.148300 L 466.188300 735.710600 L 462.101200 734.144000 L 458.037200 732.452100 L 453.999400 730.638500 L 449.990700 728.706700 L 446.014200 726.660200 L 442.072700 724.502600 L 438.169300 722.237300 L 434.306800 719.867900 L 430.488300 717.397900 L 426.716800 714.831000 L 422.995100 712.170500 L 419.326300 709.420000 L 415.713200 706.583100 L 412.159000 703.663300 L 408.666500 700.664100 L 405.238800 697.589100 L 401.878700 694.441700 L 398.589200 691.225600 L 395.373400 687.944200 L 392.234100 684.601000 L 389.174400 681.199700 L 386.197100 677.743700 L 383.305300 674.236600 L 380.501900 670.681900 L 377.790000 667.083000 L 375.172300 663.443700 L 372.652000 659.767300 L 370.232000 656.057500 L 367.915200 652.317700 L 365.704600 648.551400 L 363.603200 644.762300 L 358.547700 635.269400 L 353.491700 625.775900 L 352.413400 623.660300 L 351.412500 621.503100 L 350.463000 619.318200 L 349.539300 617.119400 L 348.615600 614.920600 L 347.666100 612.735600 L 346.665100 610.578300 L 345.586700 608.462600 L 344.707500 606.781000 L 343.743700 604.850300 L 341.620800 600.379200 L 339.334100 595.324900 L 336.999800 589.962900 L 334.734200 584.568800 L 332.653200 579.418400 L 330.873200 574.787000 L 329.510100 570.950500 L 328.394100 567.812700 L 327.174600 564.709300 L 325.886300 561.628800 L 324.563500 558.559800 L 323.240800 555.490700 L 321.952400 552.410200 L 320.733000 549.306700 L 319.616800 546.168700 L 318.094800 541.675000 L 316.519700 537.154500 L 313.239600 528.044900 L 309.834600 518.863000 L 306.362800 509.631700 L 302.882200 500.374000 L 299.450800 491.112900 L 296.126700 481.871200 L 294.523000 477.264900 L 292.967900 472.672100 L 289.577900 462.605100 L 286.057200 452.445100 L 284.239600 447.349000 L 282.379500 442.252100 L 280.473700 437.162100 L 278.518700 432.086300 L 276.511400 427.032300 L 274.448400 422.007600 L 272.326400 417.019700 L 270.142300 412.076200 L 267.892600 407.184400 L 265.574200 402.352000 L 263.183600 397.586400 L 260.717700 392.895200 L 259.209300 390.141400 L 257.691400 387.463700 L 256.160900 384.854500 L 254.615000 382.305900 L 253.050500 379.810400 L 251.464400 377.360300 L 249.853800 374.947800 L 248.215500 372.565200 L 244.844100 367.859400 L 241.326100 363.181100 L 237.637300 358.469000 L 233.753600 353.661400 L 232.830700 352.567600 L 231.874700 351.497800 L 229.875500 349.424400 L 227.780500 347.428900 L 225.614500 345.499100 L 223.401900 343.622700 L 221.167500 341.787400 L 216.731300 338.191000 L 214.480100 336.397800 L 212.169600 334.651700 L 209.802600 332.952300 L 207.381900 331.299300 L 204.910300 329.692300 L 202.390400 328.130800 L 199.825000 326.614600 L 197.216900 325.143200 L 194.568900 323.716200 L 191.883600 322.333300 L 189.163900 320.994000 L 186.412600 319.698000 L 183.632300 318.445000 L 180.825800 317.234400 L 177.996000 316.066100 L 175.145400 314.939400 L 172.277000 313.854100 L 169.393400 312.809900 L 166.497400 311.806200 L 163.591800 310.842700 L 160.679300 309.919100 L 157.762700 309.035000 L 151.928200 307.383500 L 146.110300 305.885300 L 140.331000 304.537200 L 134.612500 303.336200 L 128.976700 302.279300 L 123.525700 301.373600 L 118.020400 300.528600 L 112.422300 299.673900 L 106.692500 298.739000 L 106.692500 298.254100 L 107.864600 297.872500 L 109.128200 297.524200 L 110.477100 297.207900 L 111.905600 296.922300 L 113.407700 296.666200 L 114.977500 296.438200 L 118.296500 296.062100 L 121.815300 295.783800 L 125.486400 295.593300 L 129.262500 295.480600 L 133.096200 295.435700 L 136.940300 295.448600 L 140.747400 295.509200 L 148.060900 295.733600 L 154.658100 296.028600 L 160.160000 296.314200 L 163.356300 296.509100 L 166.634200 296.761100 L 169.987400 297.069300 L 173.409700 297.432600 L 176.895000 297.850000 L 180.437100 298.320500 L 184.029900 298.843000 L 187.667100 299.416600 L 191.342500 300.040200 L 195.050000 300.712900 L 198.783500 301.433500 L 202.536700 302.201000 L 206.303500 303.014600 L 210.077600 303.873000 L 213.853000 304.775400 L 217.623400 305.720700 L 221.382700 306.707900 L 225.124700 307.735900 L 228.843100 308.803800 L 232.531900 309.910500 L 236.184900 311.055000 L 239.795800 312.236300 L 243.358600 313.453300 L 246.867000 314.705200 L 250.314800 315.990700 L 253.695900 317.309000 L 257.004200 318.659000 L 260.233300 320.039600 L 263.377200 321.449900 L 266.429700 322.888900 L 269.384500 324.355500 L 272.235600 325.848700 L 278.740400 329.397800 L 285.221400 332.990200 L 291.702000 336.582300 L 298.205600 340.130900 L 301.092700 341.746100 L 303.927500 343.447600 L 306.714100 345.227600 L 309.456600 347.078200 L 312.158700 348.991600 L 314.824700 350.959700 L 317.458500 352.974700 L 320.064000 355.028800 L 325.206500 359.222600 L 330.284200 363.477800 L 335.329100 367.731500 L 340.373400 371.920400 L 341.249000 372.609500 L 342.165700 373.278600 L 343.119800 373.925900 L 344.107300 374.549800 L 346.167400 375.720900 L 348.315600 376.778400 L 350.521300 377.709100 L 352.753800 378.499700 L 354.982700 379.136800 L 356.086300 379.393600 L 357.177400 379.607100 L 358.882700 379.881700 L 360.550800 380.097900 L 362.181900 380.256800 L 363.775700 380.359400 L 365.332100 380.406800 L 366.851000 380.400100 L 368.332400 380.340300 L 369.776000 380.228600 L 371.181800 380.065900 L 372.549700 379.853500 L 373.879600 379.592200 L 375.171300 379.283300 L 376.424700 378.927800 L 377.639700 378.526800 L 378.816300 378.081200 L 379.954200 377.592300 L 381.053400 377.061100 L 382.113700 376.488600 L 383.135200 375.876000 L 384.117500 375.224200 L 385.060700 374.534500 L 385.964600 373.807700 L 386.829100 373.045100 L 387.654100 372.247700 L 388.439400 371.416600 L 389.185000 370.552800 L 389.890800 369.657400 L 390.556600 368.731500 L 391.182300 367.776100 L 391.767800 366.792400 L 392.313000 365.781400 L 392.817800 364.744100 L 393.282100 363.681700 L 393.705700 362.595300 L 394.088600 361.485800 L 394.430600 360.354400 L 394.731600 359.202100 L 394.991500 358.030000 L 395.210200 356.839300 L 395.387600 355.630900 L 395.523500 354.405900 L 395.617900 353.165400 L 395.670700 351.910600 L 395.681600 350.642300 L 395.650700 349.361800 L 395.577800 348.070100 L 395.462800 346.768300 L 395.305500 345.457400 L 395.105900 344.138500 L 394.863800 342.812700 L 394.579200 341.481100 L 394.251900 340.144700 L 393.881800 338.804600 L 393.468900 337.461900 L 393.012800 336.117700 L 392.513700 334.773000 L 391.971300 333.428800 L 391.385600 332.086400 L 390.756400 330.746700 L 390.083600 329.410800 L 389.367100 328.079900 L 388.606800 326.754800 L 387.802600 325.436900 L 386.954400 324.127000 L 385.482600 321.995800 L 383.892900 319.837800 L 382.191100 317.657600 L 380.383000 315.459700 L 378.474300 313.248700 L 376.470700 311.028900 L 374.378100 308.805000 L 372.202200 306.581400 L 369.948800 304.362700 L 367.623600 302.153400 L 365.232400 299.957900 L 362.781100 297.780900 L 360.275200 295.626800 L 357.720700 293.500100 L 355.123300 291.405400 L 352.488700 289.347200 L 349.822800 287.329900 L 347.131200 285.358100 L 344.419800 283.436400 L 341.694400 281.569100 L 338.960600 279.760900 L 336.224300 278.016200 L 333.491200 276.339700 L 330.767100 274.735600 L 328.057800 273.208700 L 325.368900 271.763400 L 322.706400 270.404200 L 320.076000 269.135700 L 317.483400 267.962300 L 314.934400 266.888500 L 312.434800 265.919000 L 309.990300 265.058100 L 298.315700 261.093900 L 286.639100 257.129000 L 283.894300 256.269900 L 281.109300 255.499000 L 278.293800 254.803900 L 275.457100 254.172400 L 272.608800 253.592300 L 269.758200 253.051100 L 264.088200 252.036800 L 259.126300 251.195200 L 254.215800 250.428600 L 249.353600 249.733400 L 244.536200 249.105800 L 239.760500 248.542200 L 235.023200 248.038800 L 230.320900 247.591900 L 225.650400 247.197700 L 221.008500 246.852700 L 216.391800 246.553100 L 211.797000 246.295100 L 207.220900 246.075200 L 198.111700 245.734200 L 189.037900 245.500700 L 179.973300 245.344900 L 170.891500 245.237100 L 152.571800 245.047000 L 143.281400 244.905300 L 133.869000 244.693000 L 124.308300 244.380400 L 114.573200 243.937900 L 103.165700 243.397900 L 97.455100 243.119900 L 91.746800 242.790100 L 86.045600 242.373300 L 80.356500 241.834800 L 77.518100 241.508800 L 74.684600 241.139400 L 71.856700 240.721900 L 69.034900 240.252100 L 61.955400 238.936200 L 58.443300 238.225200 L 54.950600 237.471900 L 51.477700 236.671000 L 48.025400 235.817400 L 44.594200 234.905800 L 41.184700 233.930900 L 37.797700 232.887600 L 34.433600 231.770700 L 31.093200 230.574900 L 27.777000 229.294900 L 24.485700 227.925700 L 21.219900 226.461900 L 17.980200 224.898400 L 14.767200 223.229800 L 13.419100 222.488900 L 11.490000 221.386900 L 9.203400 220.017000 L 6.783300 218.472600 L 5.593100 217.664100 L 4.453400 216.846900 L 3.392200 216.032700 L 2.437500 215.233200 L 1.617100 214.460000 L 0.959200 213.724900 L 0.491700 213.039300 L 0.338000 212.718800 L 0.242400 212.415100 L 1.300500 212.492800 L 2.935000 212.713000 L 7.655700 213.503500 L 20.955100 215.944000 L 28.421000 217.284600 L 35.689000 218.499300 L 39.074900 219.011000 L 42.202600 219.433300 L 45.002600 219.746700 L 47.405400 219.932100 L 52.490000 220.170000 L 57.435100 220.340300 L 62.260000 220.442000 L 66.983400 220.474500 L 71.624700 220.437100 L 76.202700 220.329100 L 80.736500 220.149700 L 85.245200 219.898200 L 89.747900 219.573800 L 94.263500 219.176000 L 98.811100 218.703800 L 103.409800 218.156700 L 108.078600 217.533800 L 112.836600 216.834500 L 117.702900 216.058000 L 122.696400 215.203600 L 125.502400 214.676700 L 128.294600 214.091800 L 131.074000 213.453600 L 133.841400 212.767000 L 136.597700 212.036400 L 139.343700 211.266800 L 144.808900 209.628700 L 150.243900 207.890400 L 155.656100 206.089300 L 166.440300 202.449000 L 168.531700 201.709500 L 170.602400 200.907600 L 174.709000 199.199700 L 178.815600 197.491900 L 180.886200 196.690000 L 182.977600 195.950500 L 186.691400 194.689700 L 190.394000 193.395000 L 197.780700 190.749400 L 205.167600 188.103700 L 208.870600 186.809000 L 212.584800 185.547900 L 217.989700 183.795700 L 223.426300 182.131600 L 228.892700 180.556400 L 234.386900 179.071000 L 239.907000 177.676100 L 245.450900 176.372400 L 251.016800 175.160800 L 256.602600 174.042000 L 262.206300 173.016800 L 267.826000 172.086000 L 273.459800 171.250300 L 279.105600 170.510400 L 284.761500 169.867300 L 290.425500 169.321600 L 296.095700 168.874100 L 301.770100 168.525700 L 304.923200 168.411900 L 308.079100 168.390800 L 311.236400 168.445400 L 314.393400 168.558400 L 320.700600 168.891500 L 326.988300 169.253100 L 329.831200 169.437500 L 332.700000 169.692200 L 335.591600 170.015900 L 338.503200 170.407200 L 341.431500 170.865100 L 344.373500 171.388200 L 347.326200 171.975200 L 350.286400 172.624900 L 353.251300 173.336100 L 356.217600 174.107400 L 359.182300 174.937700 L 362.142400 175.825600 L 365.094900 176.770000 L 368.036600 177.769500 L 370.964400 178.822900 L 373.875500 179.928900 L 376.766600 181.086300 L 379.634700 182.293900 L 382.476900 183.550300 L 385.289900 184.854300 L 388.070800 186.204700 L 390.816400 187.600200 L 393.523800 189.039500 L 396.189900 190.521400 L 398.811700 192.044600 L 401.386000 193.607800 L 403.909700 195.209900 L 406.380000 196.849600 L 408.793600 198.525500 L 411.147600 200.236400 L 413.438900 201.981200 L 415.664300 203.758400 L 422.816700 209.650800 L 426.644500 212.758400 L 430.623200 215.893200 L 434.740200 218.995200 L 436.846600 220.515000 L 438.982900 222.004000 L 441.147500 223.454800 L 443.338700 224.859600 L 445.555000 226.211100 L 447.794900 227.501700 L 450.056800 228.723900 L 452.339000 229.870100 L 454.640000 230.932900 L 456.958300 231.904700 L 459.292200 232.777900 L 461.640300 233.545100 L 464.000800 234.198800 L 466.372200 234.731300 L 468.753000 235.135200 L 471.141600 235.403000 L 473.536400 235.527100 L 474.735600 235.533000 L 475.935700 235.500000 L 477.136700 235.427500 L 478.338200 235.314200 L 479.540000 235.159500 L 480.742100 234.962200 L 481.944100 234.721500 L 483.145900 234.436400 L 484.347200 234.106000 L 485.548000 233.729300 L 486.439400 233.398400 L 487.299300 233.011900 L 488.126700 232.572700 L 488.920600 232.083400 L 489.680200 231.546700 L 490.404400 230.965500 L 491.092300 230.342500 L 491.742900 229.680300 L 492.355200 228.981700 L 492.928400 228.249500 L 493.461300 227.486400 L 493.953100 226.695100 L 494.402900 225.878300 L 494.809500 225.038800 L 495.172100 224.179300 L 495.489800 223.302500 L 495.947000 221.698500 L 496.263400 220.066200 L 496.445100 218.408700 L 496.498300 216.729100 L 496.429100 215.030200 L 496.243600 213.315300 L 495.947900 211.587300 L 495.548200 209.849300 L 495.050500 208.104200 L 494.461100 206.355200 L 493.785900 204.605300 L 493.031200 202.857400 L 492.203100 201.114700 L 491.307600 199.380100 L 490.351000 197.656700 L 489.339300 195.947600 L 488.278700 194.255700 L 487.175200 192.584100 L 486.035000 190.935800 L 484.864300 189.313900 L 482.455600 186.161300 L 479.998100 183.150600 L 477.540700 180.306000 L 475.132500 177.651800 L 472.822500 175.212200 L 470.659500 173.011600 L 467.810200 170.209900 L 464.876900 167.419700 L 461.862900 164.644700 L 458.771300 161.888400 L 455.605400 159.154500 L 452.368300 156.446600 L 449.063400 153.768400 L 445.693800 151.123400 L 442.262700 148.515400 L 438.773400 145.947900 L 435.229000 143.424500 L 431.632900 140.948900 L 427.988100 138.524700 L 424.298000 136.155600 L 420.565700 133.845100 L 416.794400 131.596900 L 412.987400 129.414600 L 409.148000 127.301800 L 405.279200 125.262200 L 401.384300 123.299500 L 397.466600 121.417100 L 393.529200 119.618800 L 389.575400 117.908100 L 385.608400 116.288800 L 381.631400 114.764400 L 377.647600 113.338500 L 373.660300 112.014900 L 369.672600 110.797000 L 365.687800 109.688600 L 361.709000 108.693200 L 357.739600 107.814600 L 353.782700 107.056200 L 351.683400 106.723800 L 349.549000 106.454800 L 347.396900 106.242200 L 345.244200 106.079200 L 341.006300 105.874400 L 336.973400 105.785000 L 330.075200 105.732400 L 327.486200 105.658800 L 326.467100 105.586000 L 325.654700 105.480100 L 326.416500 104.879300 L 327.330000 104.327700 L 328.385400 103.823400 L 329.573200 103.364500 L 330.883800 102.949200 L 332.307600 102.575500 L 333.835100 102.241600 L 335.456600 101.945600 L 337.162600 101.685700 L 338.943500 101.460000 L 342.691600 101.103700 L 346.624100 100.861600 L 350.664500 100.719000 L 354.736000 100.660600 Z M 529.291700 670.531700 L 527.635300 670.733200 L 526.008100 671.037800 L 524.413900 671.442000 L 522.856800 671.942300 L 521.340600 672.535100 L 519.869300 673.216900 L 518.446900 673.984100 L 517.077200 674.833100 L 515.764300 675.760400 L 514.512000 676.762400 L 513.324400 677.835500 L 512.205300 678.976300 L 511.158700 680.181000 L 510.188500 681.446300 L 509.298700 682.768500 L 508.493200 684.144000 L 507.775900 685.569300 L 507.150900 687.040800 L 506.622000 688.555100 L 506.193100 690.108400 L 505.868300 691.697300 L 505.651400 693.318200 L 505.546400 694.967500 L 505.557300 696.641700 L 505.688000 698.337200 L 505.942300 700.050400 L 506.324300 701.777900 L 506.838000 703.516000 L 507.371800 704.974600 L 507.985000 706.388700 L 508.674800 707.755800 L 509.438800 709.073400 L 510.274300 710.339000 L 511.178800 711.550200 L 512.149600 712.704500 L 513.184200 713.799400 L 514.280100 714.832500 L 515.434500 715.801300 L 516.645000 716.703400 L 517.909000 717.536200 L 519.223900 718.297400 L 520.587100 718.984400 L 521.996000 719.594800 L 523.448000 720.126000 L 524.034800 720.292700 L 524.646900 720.421600 L 525.947300 720.636400 L 527.349900 720.911300 L 528.089800 721.115300 L 528.855400 721.387000 L 530.431800 721.354000 L 531.961800 721.256600 L 533.445500 721.096600 L 534.882800 720.876000 L 536.273800 720.596800 L 537.618300 720.260900 L 538.916500 719.870200 L 540.168300 719.426800 L 541.373800 718.932600 L 542.532800 718.389600 L 543.645400 717.799600 L 544.711700 717.164800 L 545.731600 716.486900 L 546.705000 715.768100 L 547.632100 715.010200 L 548.512700 714.215200 L 549.346900 713.385000 L 550.134800 712.521700 L 550.876100 711.627200 L 551.571100 710.703400 L 552.219600 709.752400 L 552.821700 708.775900 L 553.377400 707.776200 L 553.886600 706.754900 L 554.349400 705.714300 L 554.765700 704.656100 L 555.135600 703.582300 L 555.459000 702.495000 L 555.736000 701.396100 L 555.966500 700.287500 L 556.150500 699.171100 L 556.288100 698.049100 L 556.379200 696.923200 L 556.423800 695.795500 L 556.421900 694.668000 L 556.373500 693.542500 L 556.278700 692.421100 L 556.137300 691.305600 L 555.949500 690.198200 L 555.715100 689.100600 L 555.434200 688.014900 L 555.106900 686.943100 L 554.733000 685.887100 L 554.312600 684.848800 L 553.845700 683.830300 L 553.332200 682.833400 L 552.772200 681.860100 L 552.165700 680.912500 L 551.512700 679.992400 L 550.813100 679.101800 L 550.067000 678.242700 L 549.274300 677.417000 L 548.435100 676.626700 L 547.549300 675.873700 L 546.616900 675.160100 L 545.638000 674.487700 L 544.612500 673.858500 L 543.540500 673.274600 L 542.421800 672.737700 L 541.256600 672.250000 L 540.044800 671.813300 L 538.786500 671.429700 L 537.481500 671.101000 L 536.129900 670.829200 L 534.396400 670.582300 L 532.676200 670.452700 L 530.973300 670.437100 Z M 13.623000 1.538100 L 15.026500 2.892600 L 16.349900 4.292700 L 17.608900 5.725300 L 19.995000 8.635500 L 22.308400 11.517900 L 25.494400 15.332000 L 28.800300 19.127000 L 32.215500 22.880700 L 35.729300 26.570800 L 39.331100 30.175200 L 43.010200 33.671700 L 46.755900 37.038100 L 48.650500 38.665500 L 50.557700 40.252100 L 57.800500 46.086300 L 61.373000 48.892200 L 64.918400 51.626700 L 68.440800 54.291600 L 71.944600 56.888900 L 75.433600 59.420400 L 78.912300 61.888200 L 82.384600 64.294100 L 85.854700 66.640000 L 89.326800 68.927900 L 92.805100 71.159800 L 96.293600 73.337500 L 99.796600 75.462900 L 103.318200 77.538000 L 106.862500 79.564800 L 110.433800 81.545100 L 114.036000 83.480800 L 117.673500 85.373900 L 121.350300 87.226400 L 125.070700 89.040100 L 128.838700 90.817000 L 132.658500 92.558900 L 136.534300 94.267900 L 140.470200 95.945800 L 144.470300 97.594600 L 148.538900 99.216200 L 152.680000 100.812500 L 156.897900 102.385500 L 161.196600 103.937000 L 165.580400 105.469000 L 170.053300 106.983400 L 174.459200 108.397800 L 180.791800 110.344100 L 188.392200 112.600300 L 196.601800 114.944300 L 204.761800 117.154000 L 208.617300 118.139100 L 212.213500 119.007300 L 215.467800 119.731000 L 218.298100 120.282200 L 220.621900 120.633300 L 221.568100 120.725100 L 222.356900 120.756500 L 218.138500 121.836700 L 213.962600 122.980900 L 209.824800 124.182600 L 205.720800 125.435500 L 201.646200 126.733100 L 197.596700 128.068900 L 189.555200 130.829800 L 181.561400 133.666700 L 173.580400 136.528200 L 165.577200 139.362800 L 157.516900 142.119300 L 155.901600 142.685300 L 154.018300 143.388600 L 149.602600 145.111100 L 144.580500 147.094900 L 139.262500 149.148100 L 136.589500 150.140800 L 133.959000 151.078900 L 131.409800 151.938500 L 128.980700 152.695600 L 126.710500 153.326200 L 124.638000 153.806300 L 122.802100 154.111900 L 121.984900 154.191900 L 121.241500 154.219200 L 120.098800 153.566400 L 118.895700 152.816600 L 117.642300 151.981900 L 116.348800 151.074900 L 113.681900 149.092800 L 110.975900 146.969400 L 108.311800 144.803500 L 105.770800 142.694000 L 101.382100 139.039700 L 96.752100 135.183600 L 92.147900 131.208600 L 87.581900 127.118200 L 83.066100 122.915700 L 78.612700 118.604500 L 74.233800 114.188100 L 69.941700 109.669900 L 65.748400 105.053200 L 63.692700 102.709000 L 61.666200 100.341500 L 59.670500 97.951000 L 57.707200 95.538200 L 55.777700 93.103200 L 53.883500 90.646600 L 52.026200 88.168900 L 50.207300 85.670300 L 48.428400 83.151500 L 46.690900 80.612700 L 44.996300 78.054400 L 43.346200 75.477000 L 41.742200 72.881000 L 40.185600 70.266800 L 38.678100 67.634800 L 37.221100 64.985400 L 34.617700 59.993600 L 32.092900 54.959300 L 29.567900 49.924700 L 26.964100 44.932100 L 26.188600 43.379900 L 25.265800 41.342100 L 24.222800 38.887100 L 23.086900 36.083500 L 21.885200 33.000200 L 20.645200 29.705600 L 19.394000 26.268400 L 18.158800 22.757300 L 16.966900 19.240900 L 15.845500 15.787700 L 14.821900 12.466600 L 13.923400 9.346000 L 13.177000 6.494700 L 12.610200 3.981200 L 12.250200 1.874300 L 12.156200 0.994700 L 12.124100 0.242400 Z"></path>
<path d="M 346.344314 508.805254 C 349.345806 514.379435 351.247952 520.544664 354.249284 526.118548 C 357.648948 532.432229 360.961630 538.792195 364.360815 545.104966 C 386.182935 585.631762 427.143314 622.854322 471.053346 637.490999 C 489.588074 643.669242 508.857472 648.580185 528.521823 649.615151 C 563.457446 651.453868 602.100726 648.092406 635.432566 636.981785 C 640.663597 635.238116 655.046072 629.835446 659.341416 628.761610 L 659.341416 628.519127 C 655.729678 623.945960 651.140091 620.475563 647.702231 616.273735 C 635.134887 600.913648 625.431615 585.009898 619.113506 566.055498 C 606.898919 529.411810 612.157180 481.048424 618.773994 443.553078 C 620.364313 434.541337 622.494116 425.624731 624.084408 416.613205 C 626.853066 400.924013 631.935187 385.704377 634.705117 370.007979 C 637.946502 351.640260 639.931503 333.267703 640.912706 314.624850 C 641.445619 304.499506 640.472924 294.387331 639.942774 284.314472 C 636.102958 211.357961 597.669648 145.533101 547.071775 94.935228 C 538.446370 86.309823 529.676185 77.770633 520.277401 70.080718 C 483.739427 40.186013 464.195253 24.972184 418.240531 9.653960 C 405.706447 5.475916 391.650801 2.396608 378.424830 1.700505 C 368.483397 1.177271 333.696433 -0.854073 326.412221 5.822716 C 330.163526 6.488347 343.468204 5.444965 354.540252 7.398856 C 396.669029 14.833346 441.483821 43.420989 471.417071 73.354239 C 482.473401 84.410569 501.896794 106.696833 496.247339 123.645195 C 494.674967 128.362314 491.142003 132.459830 486.305535 134.071965 C 460.697662 142.607944 434.533135 118.919353 416.421909 104.101099 C 393.045196 84.974676 357.920331 71.183881 327.745878 69.595752 C 319.380614 69.155475 310.930755 68.426034 302.527643 68.868303 C 272.256782 70.461506 242.080204 76.311339 213.342389 85.890600 C 203.419396 89.198275 193.656718 92.985963 183.735203 96.293157 C 178.124193 98.163472 172.808955 100.921315 167.197872 102.791655 C 152.835468 107.579145 138.457740 112.898554 123.453928 115.546286 C 96.448721 120.311910 75.686404 121.723307 48.162949 120.274705 C 36.531273 119.662511 4.981610 112.757731 1.000000 112.757731 C 1.697212 115.902745 12.903649 122.161121 15.524734 123.572497 C 32.588359 132.760580 50.818703 137.246477 69.792437 140.594794 C 84.824541 143.247507 100.146018 143.481328 115.330747 144.280524 C 167.763477 147.040142 211.632346 142.988851 264.845775 152.379434 C 272.352827 153.704230 280.138886 155.052329 287.396696 157.471607 C 295.196235 160.071445 302.950921 162.801830 310.747824 165.400790 C 336.507923 173.987498 372.662308 201.895227 387.711942 224.469649 C 406.278343 252.319281 394.707005 286.438952 357.935015 279.949777 C 352.155254 278.929819 345.684563 275.988756 341.130929 272.263077 C 327.652145 261.234959 314.507338 248.843492 298.963154 240.473529 C 290.265943 235.790433 281.692399 230.875469 272.993199 226.191302 C 243.156986 210.125631 194.555399 198.427271 160.917556 196.656858 C 148.042895 195.979244 119.444732 194.345238 107.450048 198.596722 L 107.450048 199.081688 C 115.194666 200.412871 122.485245 201.342706 129.734245 202.621934 C 159.531902 207.880351 193.801693 219.153279 217.488843 238.533665 C 223.309073 243.295681 229.683089 248.103125 234.511154 254.004093 C 245.149123 267.006056 253.450305 278.334347 261.475255 293.237859 C 274.833624 318.046224 284.836156 346.346702 293.725497 373.014775 C 301.876809 397.468661 312.410903 422.620895 320.374388 446.511374 C 323.182355 454.935251 327.459914 462.869772 330.267707 471.293127 C 333.243096 480.219319 341.905966 500.562588 346.344314 508.805254 Z M 529.612997 621.729603 C 527.536691 620.899080 525.736631 620.979026 524.205614 620.468692 C 516.350859 617.850435 510.226875 611.752613 507.595526 603.858604 C 501.401001 585.274991 518.338903 567.898612 536.887488 571.171892 C 566.217910 576.347849 563.736978 621.729603 529.612997 621.729603 Z" transform="scale(1.000000,1.000000) translate(-0.757517,99.657400)" fill="#c8ff3a" opacity="1.000000"></path>
<path d="M 110.117362 154.976722 C 117.637216 154.976722 138.561782 145.487166 146.392817 142.876842 C 167.994103 135.676392 188.613535 127.092987 211.232784 121.514064 C 203.695903 121.514064 167.523931 110.605940 158.929192 107.741016 C 110.727494 91.673795 78.454055 72.935559 39.433560 41.009699 C 29.230480 32.661725 19.510771 22.452275 11.184287 12.275461 C 8.093263 8.497543 5.138029 4.365054 1.000000 1.000000 C 1.000000 8.314007 12.145820 38.829074 15.839960 45.689634 C 19.399245 52.299720 22.538552 59.134434 26.096993 65.742968 C 41.362922 94.093979 65.516909 119.554572 90.258003 139.797261 C 95.277332 143.904009 104.202229 151.776672 110.117362 154.976722 Z" transform="scale(1.000000,1.000000) translate(11.124151,-0.757517)" fill="#c8ff3a" opacity="1.000000"></path>
  </g>
  </svg>
</svg>